<?xml version="1.0" encoding="utf-8"?>
<!-- Generator: Adobe Illustrator 19.0.0, SVG Export Plug-In . SVG Version: 6.00 Build 0)  -->
<svg version="1.1" id="Layer_1" xmlns="http://www.w3.org/2000/svg" xmlns:xlink="http://www.w3.org/1999/xlink" x="0px" y="0px"
	 viewBox="256 -346 612 792" style="enable-background:new 256 -346 612 792;" xml:space="preserve">
<style type="text/css">
	.st0{fill:none;stroke:#000000;stroke-width:8;stroke-miterlimit:10;}
	.st1{fill:none;stroke:#000000;stroke-width:4;stroke-miterlimit:10;}
</style>
<image style="display:none;overflow:visible;enable-background:new    ;" width="500" height="500" xlink:href="C6D6D3AF6A4755A2.jpeg"  transform="matrix(1 0 0 1 884 -952)">
</image>
<path class="st0" d="M783.6,340.3c14.5-4.5,16.8-9.4,17.4-23.3l0-239.4c0-6.1-5.9-10.7-13.2-10.5l-225.5,5.3
	c-14,0.3-25.2,9.9-25.2,21.7l-0.4,295.7c0,15.7,18.8,26.5,36.2,20.7L783.6,340.3z"/>
<line class="st0" x1="578.2" y1="72.9" x2="575.6" y2="-256.4"/>
<line class="st0" x1="577.5" y1="71.9" x2="434.1" y2="67.3"/>
<path class="st0" d="M775.4,66.2l-0.9-262.3c0-5.1-4-9.7-9.8-11.2l-177.6-48.2c-6.7-1.8-13.9-1.9-20.7-0.2l-119.7,29.5
	c-11.9,2.9-20,12.2-19.8,22.6l4.2,272.1"/>
<path class="st0" d="M552.3,410l-123.5-38.2c-10.1-3.1-16.7-11.2-16.7-23.5V86.1c0-9.3,12.6-19.4,27.6-18.8l119.8,4.2"/>
<path class="st1" d="M721.4,16.4l0.3-133c0-7.9-6.3-14.8-15.4-16.8l-27.7-6.2c-7.8-1.7-15.4,3.2-15.4,9.9l-0.9,145.3
	c-0.1,8.1,7.6,14.7,17.2,15l23.5,0.7C713,31.6,721.4,24.8,721.4,16.4z"/>
<path class="st1" d="M694.2-2.1l-4.6,0.2c-4.6,0.2-8.3,4.4-8.3,9.3v0c0,4.9,3.7,8.8,8.3,8.7l4.6-0.1c4.6-0.1,8.5-4.3,8.5-9.3v0
	C702.6,1.6,698.8-2.3,694.2-2.1z"/>
<polygon class="st1" points="609.3,332.5 609.3,311.7 653.4,300.7 653.4,320.3 "/>
<polygon class="st1" points="691.9,208.7 668.8,211.8 668.8,150.3 691.9,148.1 "/>
<polygon class="st1" points="703.6,308.5 703.6,289 747.8,278 747.8,297.6 "/>
<polyline class="st1" points="412.1,142.6 346,124.8 346.9,163 412.1,186 "/>
<line class="st1" x1="412.1" y1="306.4" x2="340" y2="281.6"/>
<polyline class="st1" points="412.1,291.6 369.3,278 340,281.6 340,303.6 412.1,329.1 "/>
<polyline class="st1" points="346.2,124.2 365,120.1 413.1,133.1 "/>
</svg>
