<?xml version="1.0" encoding="utf-8"?>
<!-- Generator: Adobe Illustrator 19.0.0, SVG Export Plug-In . SVG Version: 6.00 Build 0)  -->
<svg version="1.1" id="Layer_1" xmlns="http://www.w3.org/2000/svg" xmlns:xlink="http://www.w3.org/1999/xlink" x="0px" y="0px"
	 viewBox="150 -150 400 400" style="enable-background:new 150 -150 400 400;" xml:space="preserve">
<style type="text/css">
	.st0{fill:#26A8EF;stroke:#000000;stroke-miterlimit:10;}
</style>
<g id="XMLID_1_">
</g>
<path class="st0" d="M534.7,224.7V-17.6c-0.8-6.7-6.9-28-27.2-47.2c-3.2-3-21.4-19.4-51.9-19.6c-32.4-0.2-63.5,16.3-78.7,49.2
	c-1.4-6.5-4.7-17.5-13-28.5c-11-14.7-25.4-22.4-34.8-25.4c-27.9-9-64.6,6.7-88.2,40.5c0-12.1,0-33.2,0-33.2v-3.1h-71.8h-3.8
	l0.3,315.7h5.2H241v-1.5V20.6c0.8-3.4,4-16,16.1-24.4c2.6-1.8,10.7-7.2,21.8-6.7C291-10,299-2.9,303.3,0.9
	c7.8,6.9,11.6,14.8,13.5,19.7c0,69.9,0,139.8,0,209.6h72.6c0-69.9,0-139.8,0-209.6c0.2-2.8,1.4-14.6,11.4-23.9
	c1.4-1.3,12.4-11.1,28-9.3c9.5,1.1,15.8,5.9,18.2,7.8c11.4,9.1,13.9,21.8,14.5,25.4v209.6h73.2V224.7z"/>
</svg>
