<?xml version="1.0" encoding="utf-8"?>
<!-- Generator: Adobe Illustrator 19.0.0, SVG Export Plug-In . SVG Version: 6.00 Build 0)  -->
<svg version="1.1" id="Layer_1" xmlns="http://www.w3.org/2000/svg" xmlns:xlink="http://www.w3.org/1999/xlink" x="0px" y="0px"
	 viewBox="256 -346 612 792" style="enable-background:new 256 -346 612 792;" xml:space="preserve">
<style type="text/css">
	.st0{fill:none;stroke:#000000;stroke-width:20;stroke-miterlimit:10;}
	.st1{fill:none;stroke:#000000;stroke-width:14;stroke-miterlimit:10;}
	.st2{fill:none;stroke:#000000;stroke-width:8;stroke-miterlimit:10;}
</style>
<path class="st0" d="M764.1,324.3c14.5-4.5,16.8-9.4,17.4-23.3V61.6c0-6.1-5.9-10.7-13.2-10.5l-225.5,5.3
	c-14,0.3-25.2,9.9-25.2,21.7l-0.4,295.7c0,15.7,18.8,26.5,36.2,20.7L764.1,324.3z"/>
<line class="st0" x1="558.7" y1="56.9" x2="556.1" y2="-272.4"/>
<line class="st0" x1="558" y1="55.9" x2="414.6" y2="51.3"/>
<path class="st0" d="M755.9,50.2L755-212.1c0-5.1-4-9.7-9.8-11.2l-177.6-48.2c-6.7-1.8-13.9-1.9-20.7-0.2l-119.7,29.5
	c-11.9,2.9-20,12.2-19.8,22.6l4.2,272.1"/>
<path class="st0" d="M532.8,394l-123.5-38.2c-10.1-3.1-16.7-11.2-16.7-23.5V70.1c0-9.3,12.6-19.4,27.6-18.8L540,55.5"/>
<path class="st0" d="M708.4,0.4l0.3-133c0-7.9-7-14.8-17.1-16.8l-30.8-6.2c-8.7-1.7-17.1,3.2-17.1,9.9l-1,145.3
	c-0.1,8.1,8.4,14.7,19.1,15l26.1,0.7C699.1,15.6,708.4,8.8,708.4,0.4z"/>
<path class="st0" d="M677.7-26.1l-4.6,0.2c-4.6,0.2-8.3,4.4-8.3,9.3l0,0c0,4.9,3.7,8.8,8.3,8.7l4.6-0.1c4.6-0.1,8.5-4.3,8.5-9.3l0,0
	C686.1-22.4,682.3-26.3,677.7-26.1z"/>
<polygon class="st1" points="589.8,316.5 589.8,291.3 633.9,278 633.9,301.7 "/>
<polygon class="st1" points="672.4,192.7 649.3,195.8 649.3,134.3 672.4,132.1 "/>
<polygon class="st1" points="684.1,292.5 684.1,268.5 728.3,254.9 728.3,279.1 "/>
<polyline class="st2" points="392.6,126.6 326.5,108.8 327.4,147 392.6,170 "/>
<line class="st2" x1="392.6" y1="290.4" x2="320.5" y2="265.6"/>
<polyline class="st2" points="392.6,275.6 349.8,262 320.5,265.6 320.5,287.6 392.6,313.1 "/>
<polyline class="st2" points="326.7,108.2 345.5,104.1 393.6,117.1 "/>
</svg>
