<?xml version="1.0" encoding="utf-8"?>
<!-- Generator: Adobe Illustrator 19.0.0, SVG Export Plug-In . SVG Version: 6.00 Build 0)  -->
<svg version="1.1" id="Layer_1" xmlns="http://www.w3.org/2000/svg" xmlns:xlink="http://www.w3.org/1999/xlink" x="0px" y="0px"
	 viewBox="256 -346 612 792" style="enable-background:new 256 -346 612 792;" xml:space="preserve">
<style type="text/css">
	.st0{fill:none;stroke:#515151;stroke-width:20;stroke-miterlimit:10;}
	.st1{fill:none;stroke:#515151;stroke-width:12;stroke-miterlimit:10;}
	.st2{fill:#515151;}
	.st3{fill:#FFFFFF;stroke:#FFFFFF;stroke-miterlimit:10;}
	.st4{font-family:'MyriadPro-Regular';}
	.st5{font-size:24px;}
	.st6{font-family:'MyriadPro-BoldCond';}
	.st7{font-size:48px;}
</style>
<path class="st0" d="M654.5,434h-185c-16.8,0-30.5-12.2-30.5-27.2v-713.6c0-15,13.6-27.2,30.5-27.2h185.1
	c16.8,0,30.5,12.2,30.5,27.2v713.6C685,421.8,671.4,434,654.5,434z"/>
<path class="st1" d="M529.5-214h-44.3c-3.3,0-5.9-3.7-5.9-8.3V-240c0-4.6,2.7-8.3,5.9-8.3h44.3c3.3,0,5.9,3.7,5.9,6.2v17.7
	C535.4-217.9,532.8-214,529.5-214z"/>
<path class="st2" d="M595.1,256.9h-59.8c-11,0-19.9-8.9-19.9-19.9v-15.3c0-11,8.9-19.9,19.9-19.9h59.8c11,0,19.9,8.9,19.9,19.9v15.3
	C615,247.9,606.1,256.9,595.1,256.9z"/>
<text transform="matrix(0.9624 0 0 1 527.7389 236.6367)" class="st3 st4 st5">433MHz</text>
<path class="st1" d="M638.7-214h-44.3c-3.3,0-5.9-3.7-5.9-8.3V-240c0-4.6,2.7-8.3,5.9-8.3h44.3c3.3,0,5.9,3.7,5.9,6.2v17.7
	C644.6-217.9,642-214,638.7-214z"/>
<path class="st1" d="M529.5-154.3h-44.3c-3.3,0-5.9-3.7-5.9-8.3v-17.7c0-4.6,2.7-8.3,5.9-8.3h44.3c3.3,0,5.9,3.7,5.9,6.2v17.7
	C535.4-158.3,532.8-154.3,529.5-154.3z"/>
<path class="st1" d="M638.7-154.3h-44.3c-3.3,0-5.9-3.7-5.9-8.3v-17.7c0-4.6,2.7-8.3,5.9-8.3h44.3c3.3,0,5.9,3.7,5.9,6.2v17.7
	C644.6-158.3,642-154.3,638.7-154.3z"/>
<path class="st1" d="M529.5-101.1h-44.3c-3.3,0-5.9-3.7-5.9-8.3v-17.7c0-4.6,2.7-8.3,5.9-8.3h44.3c3.3,0,5.9,3.7,5.9,6.2v17.7
	C535.4-105.1,532.8-101.1,529.5-101.1z"/>
<path class="st1" d="M638.7-101.1h-44.3c-3.3,0-5.9-3.7-5.9-8.3v-17.7c0-4.6,2.7-8.3,5.9-8.3h44.3c3.3,0,5.9,3.7,5.9,6.2v17.7
	C644.6-105.1,642-101.1,638.7-101.1z"/>
<path class="st1" d="M529.5-41.5h-44.3c-3.3,0-5.9-3.7-5.9-8.3v-17.7c0-4.6,2.7-8.3,5.9-8.3h44.3c3.3,0,5.9,3.7,5.9,6.2v17.7
	C535.4-45.5,532.8-41.5,529.5-41.5z"/>
<path class="st1" d="M638.7-41.5h-44.3c-3.3,0-5.9-3.7-5.9-8.3v-17.7c0-4.6,2.7-8.3,5.9-8.3h44.3c3.3,0,5.9,3.7,5.9,6.2v17.7
	C644.6-45.5,642-41.5,638.7-41.5z"/>
<text transform="matrix(1 0 0 1 552.4714 -213.9528)" class="st2 st6 st7">1</text>
<text transform="matrix(1 0 0 1 552.4711 -41.5111)" class="st2 st6 st7">4</text>
<text transform="matrix(1 0 0 1 552.4709 -101.1375)" class="st2 st6 st7">3</text>
<text transform="matrix(1 0 0 1 552.4711 -154.3266)" class="st2 st6 st7">2</text>
<text transform="matrix(1 0 0 1 586.7403 27.5407)" class="st2 st6 st7">OFF</text>
<text transform="matrix(1 0 0 1 484.0966 27.5408)" class="st2 st6 st7">ON</text>
</svg>
